<?xml version="1.0" encoding="UTF-8"?>
<svg xmlns="http://www.w3.org/2000/svg" xmlns:xlink="http://www.w3.org/1999/xlink" width="1080" height="1920" viewBox="0 0 1080 1920">
<defs>
<g>
<g id="glyph-0-0">
<path d="M 6.554688 -3.230469 C 6.554688 -2.183594 6.273438 -1.363281 5.714844 -0.765625 C 5.15625 -0.164062 4.390625 0.132812 3.421875 0.132812 C 2.445312 0.132812 1.679688 -0.167969 1.125 -0.773438 C 0.570312 -1.382812 0.289062 -2.199219 0.289062 -3.230469 C 0.289062 -4.269531 0.570312 -5.089844 1.125 -5.691406 C 1.679688 -6.296875 2.445312 -6.597656 3.421875 -6.597656 C 4.390625 -6.597656 5.15625 -6.296875 5.714844 -5.695312 C 6.273438 -5.097656 6.554688 -4.273438 6.554688 -3.230469 M 4.878906 -3.234375 C 4.878906 -3.617188 4.839844 -3.945312 4.757812 -4.214844 C 4.679688 -4.488281 4.574219 -4.710938 4.441406 -4.882812 C 4.300781 -5.058594 4.144531 -5.1875 3.96875 -5.261719 C 3.792969 -5.339844 3.613281 -5.378906 3.425781 -5.378906 C 3.226562 -5.378906 3.042969 -5.34375 2.882812 -5.273438 C 2.71875 -5.199219 2.5625 -5.074219 2.414062 -4.890625 C 2.28125 -4.722656 2.171875 -4.5 2.089844 -4.222656 C 2.007812 -3.945312 1.964844 -3.613281 1.964844 -3.230469 C 1.964844 -2.832031 2.003906 -2.503906 2.082031 -2.242188 C 2.160156 -1.980469 2.269531 -1.761719 2.40625 -1.585938 C 2.542969 -1.40625 2.703125 -1.277344 2.878906 -1.199219 C 3.054688 -1.125 3.238281 -1.085938 3.425781 -1.085938 C 3.617188 -1.085938 3.800781 -1.125 3.980469 -1.207031 C 4.160156 -1.292969 4.3125 -1.417969 4.445312 -1.59375 C 4.582031 -1.78125 4.691406 -2 4.765625 -2.25 C 4.839844 -2.5 4.878906 -2.828125 4.878906 -3.234375 Z "/>
</g>
<g id="glyph-0-1">
<path d="M 6.644531 0 L 4.667969 0 L 2.863281 -2.371094 L 2.28125 -2.371094 L 2.28125 0 L 0.667969 0 L 0.667969 -6.464844 L 3.269531 -6.464844 C 3.628906 -6.464844 3.941406 -6.441406 4.207031 -6.394531 C 4.472656 -6.351562 4.71875 -6.257812 4.945312 -6.117188 C 5.175781 -5.96875 5.359375 -5.78125 5.496094 -5.554688 C 5.632812 -5.328125 5.699219 -5.039062 5.699219 -4.6875 C 5.699219 -4.191406 5.585938 -3.792969 5.363281 -3.484375 C 5.140625 -3.175781 4.84375 -2.929688 4.472656 -2.746094 L 6.644531 0 M 4.03125 -4.484375 C 4.03125 -4.644531 4 -4.785156 3.9375 -4.902344 C 3.875 -5.019531 3.773438 -5.109375 3.628906 -5.175781 C 3.527344 -5.21875 3.414062 -5.246094 3.289062 -5.257812 C 3.164062 -5.269531 3.011719 -5.273438 2.824219 -5.273438 L 2.28125 -5.273438 L 2.28125 -3.53125 L 2.746094 -3.53125 C 2.972656 -3.53125 3.164062 -3.546875 3.324219 -3.574219 C 3.480469 -3.601562 3.613281 -3.660156 3.722656 -3.75 C 3.828125 -3.832031 3.90625 -3.929688 3.957031 -4.039062 C 4.007812 -4.152344 4.03125 -4.300781 4.03125 -4.484375 Z "/>
</g>
<g id="glyph-0-2">
<path d="M 6.066406 -0.367188 C 5.785156 -0.253906 5.417969 -0.140625 4.964844 -0.03125 C 4.511719 0.078125 4.0625 0.132812 3.625 0.132812 C 2.609375 0.132812 1.800781 -0.160156 1.195312 -0.746094 C 0.59375 -1.332031 0.289062 -2.160156 0.289062 -3.238281 C 0.289062 -4.25 0.59375 -5.0625 1.195312 -5.671875 C 1.800781 -6.285156 2.625 -6.589844 3.671875 -6.589844 C 4.214844 -6.589844 4.652344 -6.539062 4.992188 -6.433594 C 5.332031 -6.332031 5.679688 -6.191406 6.042969 -6.015625 L 6.042969 -4.5 L 5.894531 -4.5 C 5.816406 -4.5625 5.703125 -4.648438 5.558594 -4.757812 C 5.410156 -4.871094 5.269531 -4.964844 5.128906 -5.042969 C 4.96875 -5.136719 4.78125 -5.214844 4.570312 -5.28125 C 4.355469 -5.347656 4.128906 -5.382812 3.894531 -5.382812 C 3.617188 -5.382812 3.363281 -5.339844 3.132812 -5.253906 C 2.90625 -5.164062 2.703125 -5.03125 2.523438 -4.851562 C 2.351562 -4.679688 2.214844 -4.460938 2.117188 -4.191406 C 2.015625 -3.925781 1.964844 -3.617188 1.964844 -3.265625 C 1.964844 -2.507812 2.15625 -1.953125 2.535156 -1.59375 C 2.914062 -1.234375 3.433594 -1.054688 4.089844 -1.054688 C 4.148438 -1.054688 4.214844 -1.054688 4.292969 -1.058594 C 4.371094 -1.0625 4.4375 -1.066406 4.496094 -1.070312 L 4.496094 -2.339844 L 3.242188 -2.339844 L 3.242188 -3.550781 L 6.066406 -3.550781 Z "/>
</g>
<g id="glyph-0-3">
<path d="M -0.0273438 0 L 2.15625 -6.464844 L 3.929688 -6.464844 L 6.113281 0 L 4.441406 0 L 4.035156 -1.320312 L 2.003906 -1.320312 L 1.601562 0 L -0.0273438 0 M 3.679688 -2.492188 L 3.019531 -4.621094 L 2.359375 -2.492188 Z "/>
</g>
<g id="glyph-0-4">
<path d="M 6.207031 0 L 4.644531 0 L 2.152344 -4.503906 L 2.152344 0 L 0.667969 0 L 0.667969 -6.464844 L 2.660156 -6.464844 L 4.722656 -2.761719 L 4.722656 -6.464844 L 6.207031 -6.464844 Z "/>
</g>
<g id="glyph-0-5">
<path d="M 3.890625 0 L 0.40625 0 L 0.40625 -1.128906 L 1.335938 -1.128906 L 1.335938 -5.335938 L 0.40625 -5.335938 L 0.40625 -6.464844 L 3.890625 -6.464844 L 3.890625 -5.335938 L 2.960938 -5.335938 L 2.960938 -1.128906 L 3.890625 -1.128906 Z "/>
</g>
<g id="glyph-0-6">
<path d="M 3.453125 0.125 C 2.484375 0.125 1.714844 -0.167969 1.144531 -0.753906 C 0.574219 -1.339844 0.289062 -2.164062 0.289062 -3.226562 C 0.289062 -4.25 0.578125 -5.066406 1.148438 -5.675781 C 1.71875 -6.285156 2.488281 -6.589844 3.460938 -6.589844 C 3.71875 -6.589844 3.949219 -6.574219 4.152344 -6.546875 C 4.359375 -6.515625 4.554688 -6.476562 4.746094 -6.425781 C 4.890625 -6.378906 5.050781 -6.320312 5.226562 -6.246094 C 5.398438 -6.171875 5.539062 -6.105469 5.648438 -6.050781 L 5.648438 -4.511719 L 5.480469 -4.511719 C 5.402344 -4.578125 5.304688 -4.664062 5.1875 -4.757812 C 5.066406 -4.855469 4.933594 -4.949219 4.785156 -5.042969 C 4.632812 -5.136719 4.46875 -5.214844 4.285156 -5.28125 C 4.105469 -5.34375 3.917969 -5.378906 3.71875 -5.378906 C 3.484375 -5.378906 3.269531 -5.339844 3.074219 -5.265625 C 2.878906 -5.195312 2.695312 -5.066406 2.515625 -4.882812 C 2.355469 -4.71875 2.222656 -4.496094 2.121094 -4.214844 C 2.019531 -3.933594 1.964844 -3.601562 1.964844 -3.21875 C 1.964844 -2.820312 2.019531 -2.480469 2.125 -2.207031 C 2.234375 -1.933594 2.375 -1.714844 2.546875 -1.546875 C 2.714844 -1.382812 2.902344 -1.265625 3.109375 -1.195312 C 3.316406 -1.121094 3.523438 -1.085938 3.726562 -1.085938 C 3.941406 -1.085938 4.148438 -1.121094 4.339844 -1.191406 C 4.535156 -1.261719 4.699219 -1.339844 4.832031 -1.429688 C 4.976562 -1.519531 5.101562 -1.609375 5.214844 -1.703125 C 5.324219 -1.792969 5.417969 -1.875 5.5 -1.949219 L 5.648438 -1.949219 L 5.648438 -0.429688 C 5.527344 -0.375 5.390625 -0.3125 5.234375 -0.242188 C 5.078125 -0.171875 4.917969 -0.109375 4.753906 -0.0625 C 4.550781 0 4.359375 0.046875 4.183594 0.078125 C 4.007812 0.109375 3.765625 0.125 3.453125 0.125 Z "/>
</g>
<g id="glyph-0-7">
</g>
<g id="glyph-0-8">
<path d="M 6.066406 -6.464844 L 3.84375 0 L 2.152344 0 L -0.0703125 -6.464844 L 1.613281 -6.464844 L 3.019531 -2.082031 L 4.425781 -6.464844 Z "/>
</g>
<g id="glyph-0-9">
<path d="M 1.910156 0 L 1.910156 -5.230469 L 0 -5.230469 L 0 -6.464844 L 5.441406 -6.464844 L 5.441406 -5.230469 L 3.53125 -5.230469 L 3.53125 0 Z "/>
</g>
<g id="glyph-0-10">
<path d="M 6.441406 -3.226562 C 6.441406 -2.625 6.308594 -2.085938 6.046875 -1.609375 C 5.78125 -1.132812 5.449219 -0.765625 5.046875 -0.511719 C 4.710938 -0.296875 4.347656 -0.15625 3.953125 -0.09375 C 3.558594 -0.03125 3.136719 0 2.691406 0 L 0.667969 0 L 0.667969 -6.464844 L 2.671875 -6.464844 C 3.128906 -6.464844 3.554688 -6.433594 3.949219 -6.375 C 4.347656 -6.316406 4.71875 -6.179688 5.066406 -5.957031 C 5.492188 -5.683594 5.828125 -5.316406 6.074219 -4.855469 C 6.316406 -4.394531 6.441406 -3.851562 6.441406 -3.226562 M 4.773438 -3.238281 C 4.773438 -3.664062 4.703125 -4.027344 4.554688 -4.328125 C 4.410156 -4.632812 4.183594 -4.867188 3.878906 -5.039062 C 3.660156 -5.160156 3.429688 -5.226562 3.1875 -5.238281 C 2.945312 -5.25 2.65625 -5.257812 2.320312 -5.257812 L 2.292969 -5.257812 L 2.292969 -1.210938 L 2.320312 -1.210938 C 2.6875 -1.210938 2.996094 -1.21875 3.246094 -1.230469 C 3.496094 -1.242188 3.734375 -1.320312 3.957031 -1.460938 C 4.226562 -1.628906 4.425781 -1.863281 4.566406 -2.15625 C 4.707031 -2.453125 4.773438 -2.8125 4.773438 -3.238281 Z "/>
</g>
<g id="glyph-0-11">
<path d="M 3.28125 0.132812 C 2.414062 0.132812 1.746094 -0.0742188 1.277344 -0.496094 C 0.8125 -0.914062 0.578125 -1.527344 0.578125 -2.335938 L 0.578125 -6.464844 L 2.199219 -6.464844 L 2.199219 -2.429688 C 2.199219 -1.980469 2.285156 -1.648438 2.453125 -1.429688 C 2.625 -1.207031 2.898438 -1.097656 3.28125 -1.097656 C 3.65625 -1.097656 3.929688 -1.203125 4.105469 -1.414062 C 4.277344 -1.625 4.367188 -1.964844 4.367188 -2.429688 L 4.367188 -6.464844 L 5.988281 -6.464844 L 5.988281 -2.339844 C 5.988281 -1.542969 5.761719 -0.933594 5.304688 -0.503906 C 4.851562 -0.078125 4.175781 0.132812 3.28125 0.132812 Z "/>
</g>
<g id="glyph-0-12">
<path d="M 4.984375 0 L 0.667969 0 L 0.667969 -6.464844 L 2.292969 -6.464844 L 2.292969 -1.234375 L 4.984375 -1.234375 Z "/>
</g>
<g id="glyph-0-13">
<path d="M 6.125 0 L 4.5 0 L 4.5 -2.863281 L 2.292969 -2.863281 L 2.292969 0 L 0.667969 0 L 0.667969 -6.464844 L 2.292969 -6.464844 L 2.292969 -4.097656 L 4.5 -4.097656 L 4.5 -6.464844 L 6.125 -6.464844 Z "/>
</g>
<g id="glyph-0-14">
<path d="M 0.667969 0 L 0.667969 -6.464844 L 5.039062 -6.464844 L 5.039062 -5.230469 L 2.28125 -5.230469 L 2.28125 -4.097656 L 4.824219 -4.097656 L 4.824219 -2.863281 L 2.28125 -2.863281 L 2.28125 -1.234375 L 5.039062 -1.234375 L 5.039062 0 Z "/>
</g>
<g id="glyph-0-15">
<path d="M 7.269531 0 L 5.65625 0 L 5.65625 -4.285156 L 4.480469 -1.519531 L 3.371094 -1.519531 L 2.195312 -4.285156 L 2.195312 0 L 0.667969 0 L 0.667969 -6.464844 L 2.539062 -6.464844 L 3.972656 -3.273438 L 5.398438 -6.464844 L 7.269531 -6.464844 Z "/>
</g>
<g id="glyph-0-16">
<path d="M 2.664062 0.117188 C 2.171875 0.117188 1.734375 0.0703125 1.359375 -0.0273438 C 0.984375 -0.121094 0.636719 -0.238281 0.316406 -0.382812 L 0.316406 -1.917969 L 0.464844 -1.917969 C 0.789062 -1.644531 1.144531 -1.433594 1.535156 -1.285156 C 1.925781 -1.136719 2.304688 -1.0625 2.671875 -1.0625 C 2.765625 -1.0625 2.886719 -1.074219 3.039062 -1.09375 C 3.191406 -1.113281 3.316406 -1.144531 3.40625 -1.1875 C 3.519531 -1.238281 3.617188 -1.308594 3.695312 -1.394531 C 3.773438 -1.484375 3.8125 -1.601562 3.8125 -1.746094 C 3.8125 -1.90625 3.746094 -2.039062 3.621094 -2.140625 C 3.492188 -2.242188 3.339844 -2.316406 3.164062 -2.359375 C 2.945312 -2.417969 2.710938 -2.472656 2.457031 -2.527344 C 2.207031 -2.578125 1.976562 -2.640625 1.757812 -2.71875 C 1.257812 -2.894531 0.898438 -3.132812 0.679688 -3.429688 C 0.464844 -3.726562 0.355469 -4.101562 0.355469 -4.550781 C 0.355469 -5.152344 0.613281 -5.644531 1.125 -6.019531 C 1.636719 -6.394531 2.277344 -6.582031 3.042969 -6.582031 C 3.425781 -6.582031 3.808594 -6.542969 4.191406 -6.464844 C 4.570312 -6.386719 4.910156 -6.277344 5.214844 -6.144531 L 5.214844 -4.671875 L 5.070312 -4.671875 C 4.828125 -4.875 4.535156 -5.050781 4.191406 -5.191406 C 3.84375 -5.332031 3.488281 -5.402344 3.125 -5.402344 C 2.984375 -5.402344 2.855469 -5.394531 2.742188 -5.375 C 2.628906 -5.351562 2.511719 -5.3125 2.386719 -5.257812 C 2.285156 -5.210938 2.199219 -5.140625 2.125 -5.050781 C 2.050781 -4.960938 2.015625 -4.855469 2.015625 -4.746094 C 2.015625 -4.578125 2.074219 -4.449219 2.191406 -4.351562 C 2.308594 -4.253906 2.535156 -4.167969 2.867188 -4.089844 C 3.085938 -4.039062 3.296875 -3.992188 3.496094 -3.945312 C 3.699219 -3.898438 3.914062 -3.835938 4.140625 -3.753906 C 4.589844 -3.59375 4.921875 -3.375 5.140625 -3.101562 C 5.359375 -2.828125 5.46875 -2.46875 5.46875 -2.019531 C 5.46875 -1.375 5.214844 -0.859375 4.710938 -0.46875 C 4.207031 -0.078125 3.523438 0.117188 2.664062 0.117188 Z "/>
</g>
</g>
</defs>
<g fill="rgb(98.039216%, 97.254902%, 96.078431%)" fill-opacity="1">
<use xlink:href="#glyph-0-0" x="30" y="28.892578"/>
<use xlink:href="#glyph-0-1" x="37" y="28.892578"/>
<use xlink:href="#glyph-0-2" x="43" y="28.892578"/>
<use xlink:href="#glyph-0-3" x="50" y="28.892578"/>
<use xlink:href="#glyph-0-4" x="56" y="28.892578"/>
<use xlink:href="#glyph-0-5" x="63" y="28.892578"/>
<use xlink:href="#glyph-0-6" x="67" y="28.892578"/>
<use xlink:href="#glyph-0-7" x="73" y="28.892578"/>
<use xlink:href="#glyph-0-5" x="76" y="28.892578"/>
<use xlink:href="#glyph-0-4" x="80" y="28.892578"/>
<use xlink:href="#glyph-0-4" x="87" y="28.892578"/>
<use xlink:href="#glyph-0-0" x="94" y="28.892578"/>
<use xlink:href="#glyph-0-8" x="101" y="28.892578"/>
<use xlink:href="#glyph-0-3" x="107" y="28.892578"/>
<use xlink:href="#glyph-0-9" x="113" y="28.892578"/>
<use xlink:href="#glyph-0-5" x="118" y="28.892578"/>
<use xlink:href="#glyph-0-0" x="122" y="28.892578"/>
<use xlink:href="#glyph-0-4" x="129" y="28.892578"/>
<use xlink:href="#glyph-0-7" x="136" y="28.892578"/>
</g>
<g fill="rgb(98.039216%, 97.254902%, 96.078431%)" fill-opacity="1">
<use xlink:href="#glyph-0-10" x="30" y="42.892578"/>
<use xlink:href="#glyph-0-11" x="37" y="42.892578"/>
<use xlink:href="#glyph-0-3" x="44" y="42.892578"/>
<use xlink:href="#glyph-0-12" x="50" y="42.892578"/>
<use xlink:href="#glyph-0-7" x="55" y="42.892578"/>
<use xlink:href="#glyph-0-9" x="58" y="42.892578"/>
<use xlink:href="#glyph-0-13" x="63" y="42.892578"/>
<use xlink:href="#glyph-0-14" x="70" y="42.892578"/>
<use xlink:href="#glyph-0-15" x="75" y="42.892578"/>
<use xlink:href="#glyph-0-14" x="83" y="42.892578"/>
<use xlink:href="#glyph-0-16" x="88" y="42.892578"/>
</g>
</svg>
