<?xml version="1.0" encoding="UTF-8"?>
<svg xmlns="http://www.w3.org/2000/svg" xmlns:xlink="http://www.w3.org/1999/xlink" width="1080" height="1920" viewBox="0 0 1080 1920">
<defs>
<g>
<g id="glyph-0-0">
<path d="M 2.269531 0 L 2.269531 -6.210938 L 0 -6.210938 L 0 -7.675781 L 6.464844 -7.675781 L 6.464844 -6.210938 L 4.195312 -6.210938 L 4.195312 0 Z "/>
</g>
<g id="glyph-0-1">
<path d="M 4.617188 0 L 0.484375 0 L 0.484375 -1.339844 L 1.585938 -1.339844 L 1.585938 -6.335938 L 0.484375 -6.335938 L 0.484375 -7.675781 L 4.617188 -7.675781 L 4.617188 -6.335938 L 3.515625 -6.335938 L 3.515625 -1.339844 L 4.617188 -1.339844 Z "/>
</g>
<g id="glyph-0-2">
<path d="M 7.890625 0 L 5.539062 0 L 3.402344 -2.8125 L 2.710938 -2.8125 L 2.710938 0 L 0.792969 0 L 0.792969 -7.675781 L 3.882812 -7.675781 C 4.308594 -7.675781 4.679688 -7.648438 4.996094 -7.59375 C 5.3125 -7.542969 5.601562 -7.429688 5.871094 -7.261719 C 6.144531 -7.085938 6.363281 -6.863281 6.523438 -6.59375 C 6.6875 -6.324219 6.769531 -5.980469 6.769531 -5.566406 C 6.769531 -4.980469 6.636719 -4.503906 6.371094 -4.136719 C 6.105469 -3.769531 5.753906 -3.480469 5.308594 -3.261719 L 7.890625 0 M 4.789062 -5.324219 C 4.789062 -5.515625 4.75 -5.683594 4.675781 -5.820312 C 4.605469 -5.960938 4.480469 -6.066406 4.308594 -6.144531 C 4.1875 -6.195312 4.054688 -6.226562 3.90625 -6.242188 C 3.757812 -6.253906 3.574219 -6.261719 3.355469 -6.261719 L 2.710938 -6.261719 L 2.710938 -4.195312 L 3.261719 -4.195312 C 3.53125 -4.195312 3.757812 -4.210938 3.945312 -4.246094 C 4.132812 -4.277344 4.292969 -4.347656 4.421875 -4.453125 C 4.546875 -4.550781 4.636719 -4.664062 4.699219 -4.796875 C 4.757812 -4.933594 4.789062 -5.109375 4.789062 -5.324219 Z "/>
</g>
<g id="glyph-0-3">
<path d="M 0.792969 0 L 0.792969 -7.675781 L 5.984375 -7.675781 L 5.984375 -6.210938 L 2.710938 -6.210938 L 2.710938 -4.867188 L 5.726562 -4.867188 L 5.726562 -3.402344 L 2.710938 -3.402344 L 2.710938 -1.464844 L 5.984375 -1.464844 L 5.984375 0 Z "/>
</g>
<g id="glyph-0-4">
<path d="M 7.648438 -3.828125 C 7.648438 -3.113281 7.492188 -2.476562 7.179688 -1.910156 C 6.867188 -1.34375 6.472656 -0.910156 5.996094 -0.609375 C 5.597656 -0.351562 5.160156 -0.183594 4.691406 -0.109375 C 4.222656 -0.0351562 3.726562 0 3.195312 0 L 0.792969 0 L 0.792969 -7.675781 L 3.175781 -7.675781 C 3.714844 -7.675781 4.21875 -7.640625 4.691406 -7.570312 C 5.160156 -7.503906 5.601562 -7.335938 6.015625 -7.070312 C 6.519531 -6.75 6.917969 -6.3125 7.210938 -5.765625 C 7.503906 -5.21875 7.648438 -4.570312 7.648438 -3.828125 M 5.667969 -3.84375 C 5.667969 -4.351562 5.582031 -4.78125 5.410156 -5.140625 C 5.234375 -5.5 4.96875 -5.78125 4.609375 -5.984375 C 4.347656 -6.128906 4.074219 -6.207031 3.785156 -6.222656 C 3.5 -6.234375 3.15625 -6.242188 2.757812 -6.242188 L 2.722656 -6.242188 L 2.722656 -1.4375 L 2.757812 -1.4375 C 3.191406 -1.4375 3.554688 -1.445312 3.851562 -1.460938 C 4.148438 -1.476562 4.433594 -1.570312 4.699219 -1.738281 C 5.015625 -1.9375 5.257812 -2.210938 5.421875 -2.5625 C 5.585938 -2.914062 5.667969 -3.339844 5.667969 -3.84375 Z "/>
</g>
<g id="glyph-0-5">
</g>
<g id="glyph-0-6">
<path d="M 7.78125 -3.835938 C 7.78125 -2.59375 7.453125 -1.617188 6.789062 -0.90625 C 6.125 -0.195312 5.214844 0.160156 4.0625 0.160156 C 2.902344 0.160156 1.996094 -0.199219 1.335938 -0.921875 C 0.675781 -1.640625 0.34375 -2.613281 0.34375 -3.835938 C 0.34375 -5.070312 0.675781 -6.042969 1.335938 -6.761719 C 1.996094 -7.476562 2.902344 -7.835938 4.0625 -7.835938 C 5.214844 -7.835938 6.125 -7.476562 6.789062 -6.765625 C 7.453125 -6.050781 7.78125 -5.074219 7.78125 -3.835938 M 5.792969 -3.839844 C 5.792969 -4.296875 5.746094 -4.6875 5.652344 -5.007812 C 5.558594 -5.328125 5.429688 -5.59375 5.273438 -5.796875 C 5.109375 -6.007812 4.921875 -6.160156 4.714844 -6.25 C 4.503906 -6.339844 4.289062 -6.386719 4.066406 -6.386719 C 3.828125 -6.386719 3.613281 -6.34375 3.421875 -6.261719 C 3.230469 -6.175781 3.042969 -6.023438 2.867188 -5.808594 C 2.707031 -5.609375 2.578125 -5.34375 2.480469 -5.015625 C 2.382812 -4.683594 2.335938 -4.292969 2.335938 -3.835938 C 2.335938 -3.363281 2.382812 -2.972656 2.472656 -2.664062 C 2.566406 -2.351562 2.695312 -2.089844 2.855469 -1.882812 C 3.019531 -1.667969 3.207031 -1.515625 3.417969 -1.425781 C 3.625 -1.335938 3.84375 -1.289062 4.066406 -1.289062 C 4.292969 -1.289062 4.511719 -1.335938 4.726562 -1.433594 C 4.941406 -1.535156 5.125 -1.683594 5.277344 -1.890625 C 5.441406 -2.113281 5.570312 -2.375 5.660156 -2.671875 C 5.75 -2.96875 5.792969 -3.359375 5.792969 -3.839844 Z "/>
</g>
<g id="glyph-0-7">
<path d="M 5.933594 -6.210938 L 2.710938 -6.210938 L 2.710938 -4.761719 L 5.675781 -4.761719 L 5.675781 -3.296875 L 2.710938 -3.296875 L 2.710938 0 L 0.792969 0 L 0.792969 -7.675781 L 5.933594 -7.675781 Z "/>
</g>
<g id="glyph-0-8">
<path d="M 6.933594 -2.351562 C 6.933594 -1.96875 6.859375 -1.632812 6.714844 -1.34375 C 6.570312 -1.054688 6.378906 -0.816406 6.132812 -0.628906 C 5.84375 -0.402344 5.527344 -0.242188 5.183594 -0.144531 C 4.835938 -0.046875 4.398438 0 3.867188 0 L 0.792969 0 L 0.792969 -7.675781 L 3.503906 -7.675781 C 4.070312 -7.675781 4.496094 -7.652344 4.785156 -7.609375 C 5.074219 -7.566406 5.347656 -7.476562 5.601562 -7.339844 C 5.878906 -7.191406 6.082031 -6.996094 6.21875 -6.746094 C 6.355469 -6.5 6.421875 -6.214844 6.421875 -5.890625 C 6.421875 -5.515625 6.328125 -5.183594 6.140625 -4.890625 C 5.953125 -4.597656 5.695312 -4.382812 5.367188 -4.246094 L 5.367188 -4.207031 C 5.839844 -4.105469 6.21875 -3.902344 6.503906 -3.59375 C 6.789062 -3.289062 6.933594 -2.871094 6.933594 -2.351562 M 4.464844 -5.503906 C 4.464844 -5.628906 4.433594 -5.753906 4.367188 -5.886719 C 4.304688 -6.015625 4.207031 -6.109375 4.070312 -6.167969 C 3.945312 -6.226562 3.792969 -6.253906 3.621094 -6.261719 C 3.449219 -6.265625 3.1875 -6.269531 2.84375 -6.269531 L 2.710938 -6.269531 L 2.710938 -4.644531 L 2.953125 -4.644531 C 3.285156 -4.644531 3.515625 -4.648438 3.648438 -4.65625 C 3.777344 -4.660156 3.914062 -4.699219 4.054688 -4.761719 C 4.210938 -4.835938 4.316406 -4.933594 4.375 -5.0625 C 4.433594 -5.1875 4.464844 -5.335938 4.464844 -5.503906 M 4.949219 -2.386719 C 4.949219 -2.625 4.898438 -2.808594 4.804688 -2.941406 C 4.707031 -3.078125 4.5625 -3.179688 4.371094 -3.246094 C 4.253906 -3.292969 4.09375 -3.316406 3.890625 -3.320312 C 3.683594 -3.328125 3.410156 -3.328125 3.066406 -3.328125 L 2.710938 -3.328125 L 2.710938 -1.40625 L 2.8125 -1.40625 C 3.316406 -1.40625 3.664062 -1.410156 3.855469 -1.417969 C 4.046875 -1.425781 4.242188 -1.46875 4.441406 -1.554688 C 4.617188 -1.632812 4.746094 -1.742188 4.828125 -1.890625 C 4.90625 -2.035156 4.949219 -2.199219 4.949219 -2.386719 Z "/>
</g>
<g id="glyph-0-9">
<path d="M 7.371094 0 L 5.515625 0 L 2.554688 -5.351562 L 2.554688 0 L 0.792969 0 L 0.792969 -7.675781 L 3.160156 -7.675781 L 5.609375 -3.277344 L 5.609375 -7.675781 L 7.371094 -7.675781 Z "/>
</g>
<g id="glyph-0-10">
<path d="M 7.207031 -0.4375 C 6.867188 -0.300781 6.433594 -0.167969 5.894531 -0.0351562 C 5.355469 0.09375 4.824219 0.160156 4.304688 0.160156 C 3.097656 0.160156 2.136719 -0.1875 1.421875 -0.882812 C 0.703125 -1.578125 0.34375 -2.566406 0.34375 -3.84375 C 0.34375 -5.046875 0.703125 -6.011719 1.421875 -6.738281 C 2.136719 -7.460938 3.117188 -7.824219 4.359375 -7.824219 C 5.003906 -7.824219 5.527344 -7.761719 5.925781 -7.640625 C 6.328125 -7.519531 6.746094 -7.351562 7.175781 -7.144531 L 7.175781 -5.34375 L 7 -5.34375 C 6.90625 -5.417969 6.773438 -5.519531 6.601562 -5.652344 C 6.425781 -5.785156 6.257812 -5.898438 6.09375 -5.988281 C 5.898438 -6.097656 5.675781 -6.195312 5.425781 -6.273438 C 5.171875 -6.351562 4.90625 -6.390625 4.625 -6.390625 C 4.292969 -6.390625 3.992188 -6.339844 3.722656 -6.238281 C 3.449219 -6.132812 3.207031 -5.976562 2.996094 -5.761719 C 2.792969 -5.554688 2.632812 -5.296875 2.511719 -4.980469 C 2.394531 -4.664062 2.335938 -4.296875 2.335938 -3.875 C 2.335938 -2.980469 2.558594 -2.316406 3.011719 -1.890625 C 3.460938 -1.464844 4.074219 -1.253906 4.855469 -1.253906 C 4.925781 -1.253906 5.003906 -1.253906 5.097656 -1.257812 C 5.191406 -1.261719 5.269531 -1.265625 5.339844 -1.273438 L 5.339844 -2.777344 L 3.851562 -2.777344 L 3.851562 -4.214844 L 7.207031 -4.214844 Z "/>
</g>
<g id="glyph-0-11">
<path d="M 7.175781 -7.675781 L 4.527344 -3.207031 L 4.527344 0 L 2.597656 0 L 2.597656 -3.109375 L -0.0976562 -7.675781 L 2.097656 -7.675781 L 3.601562 -4.933594 L 5.050781 -7.675781 Z "/>
</g>
<g id="glyph-0-12">
<path d="M 6.699219 -5.253906 C 6.699219 -4.894531 6.644531 -4.554688 6.53125 -4.230469 C 6.417969 -3.910156 6.253906 -3.640625 6.039062 -3.421875 C 5.910156 -3.289062 5.765625 -3.164062 5.609375 -3.050781 C 5.453125 -2.9375 5.28125 -2.839844 5.09375 -2.761719 C 4.902344 -2.683594 4.699219 -2.621094 4.476562 -2.578125 C 4.253906 -2.53125 4.007812 -2.511719 3.730469 -2.511719 L 2.722656 -2.511719 L 2.722656 0 L 0.792969 0 L 0.792969 -7.675781 L 3.773438 -7.675781 C 4.214844 -7.675781 4.597656 -7.632812 4.917969 -7.554688 C 5.242188 -7.472656 5.53125 -7.34375 5.792969 -7.167969 C 6.082031 -6.976562 6.304688 -6.71875 6.464844 -6.398438 C 6.621094 -6.078125 6.699219 -5.695312 6.699219 -5.253906 M 4.722656 -5.207031 C 4.722656 -5.421875 4.667969 -5.609375 4.566406 -5.765625 C 4.464844 -5.921875 4.339844 -6.027344 4.195312 -6.085938 C 4.011719 -6.167969 3.839844 -6.210938 3.671875 -6.222656 C 3.503906 -6.234375 3.28125 -6.242188 2.996094 -6.242188 L 2.722656 -6.242188 L 2.722656 -3.941406 L 2.855469 -3.941406 C 3.039062 -3.941406 3.210938 -3.945312 3.371094 -3.949219 C 3.53125 -3.953125 3.671875 -3.964844 3.792969 -3.984375 C 3.898438 -4 4.003906 -4.035156 4.121094 -4.085938 C 4.234375 -4.132812 4.324219 -4.191406 4.386719 -4.253906 C 4.515625 -4.378906 4.605469 -4.511719 4.652344 -4.648438 C 4.699219 -4.785156 4.722656 -4.972656 4.722656 -5.207031 Z "/>
</g>
<g id="glyph-0-13">
<path d="M 3.898438 0.160156 C 2.867188 0.160156 2.074219 -0.0898438 1.519531 -0.585938 C 0.964844 -1.085938 0.683594 -1.8125 0.683594 -2.773438 L 0.683594 -7.675781 L 2.613281 -7.675781 L 2.613281 -2.886719 C 2.613281 -2.355469 2.714844 -1.957031 2.914062 -1.695312 C 3.117188 -1.433594 3.441406 -1.304688 3.898438 -1.304688 C 4.339844 -1.304688 4.664062 -1.429688 4.875 -1.679688 C 5.082031 -1.929688 5.183594 -2.332031 5.183594 -2.886719 L 5.183594 -7.675781 L 7.113281 -7.675781 L 7.113281 -2.777344 C 7.113281 -1.832031 6.84375 -1.105469 6.300781 -0.601562 C 5.761719 -0.09375 4.957031 0.160156 3.898438 0.160156 Z "/>
</g>
<g id="glyph-0-14">
<path d="M 3.164062 0.140625 C 2.578125 0.140625 2.0625 0.0820312 1.617188 -0.03125 C 1.171875 -0.144531 0.757812 -0.285156 0.375 -0.453125 L 0.375 -2.277344 L 0.550781 -2.277344 C 0.9375 -1.953125 1.359375 -1.699219 1.824219 -1.527344 C 2.289062 -1.351562 2.738281 -1.261719 3.175781 -1.261719 C 3.285156 -1.261719 3.429688 -1.273438 3.609375 -1.300781 C 3.789062 -1.324219 3.9375 -1.359375 4.046875 -1.414062 C 4.179688 -1.46875 4.292969 -1.550781 4.386719 -1.65625 C 4.480469 -1.761719 4.527344 -1.898438 4.527344 -2.070312 C 4.527344 -2.265625 4.449219 -2.421875 4.296875 -2.542969 C 4.148438 -2.660156 3.96875 -2.75 3.757812 -2.804688 C 3.496094 -2.871094 3.21875 -2.9375 2.917969 -3 C 2.621094 -3.0625 2.34375 -3.136719 2.085938 -3.226562 C 1.492188 -3.4375 1.066406 -3.71875 0.808594 -4.070312 C 0.550781 -4.425781 0.421875 -4.867188 0.421875 -5.402344 C 0.421875 -6.121094 0.726562 -6.703125 1.335938 -7.144531 C 1.941406 -7.589844 2.703125 -7.8125 3.613281 -7.8125 C 4.070312 -7.8125 4.523438 -7.765625 4.976562 -7.675781 C 5.429688 -7.582031 5.832031 -7.457031 6.191406 -7.296875 L 6.191406 -5.546875 L 6.019531 -5.546875 C 5.734375 -5.789062 5.386719 -5.996094 4.976562 -6.164062 C 4.566406 -6.332031 4.144531 -6.417969 3.710938 -6.417969 C 3.542969 -6.417969 3.390625 -6.40625 3.257812 -6.382812 C 3.125 -6.355469 2.984375 -6.3125 2.835938 -6.242188 C 2.714844 -6.1875 2.609375 -6.105469 2.523438 -5.996094 C 2.433594 -5.890625 2.390625 -5.769531 2.390625 -5.632812 C 2.390625 -5.4375 2.460938 -5.28125 2.601562 -5.167969 C 2.738281 -5.050781 3.007812 -4.949219 3.40625 -4.855469 C 3.664062 -4.796875 3.914062 -4.738281 4.152344 -4.683594 C 4.390625 -4.628906 4.644531 -4.554688 4.917969 -4.457031 C 5.449219 -4.265625 5.847656 -4.007812 6.105469 -3.683594 C 6.363281 -3.359375 6.496094 -2.929688 6.496094 -2.398438 C 6.496094 -1.632812 6.195312 -1.019531 5.59375 -0.558594 C 4.996094 -0.09375 4.183594 0.140625 3.164062 0.140625 Z "/>
</g>
<g id="glyph-0-15">
<path d="M 5.585938 -5.804688 C 5.585938 -5.464844 5.535156 -5.160156 5.433594 -4.890625 C 5.332031 -4.617188 5.191406 -4.382812 5.003906 -4.183594 C 4.824219 -3.988281 4.605469 -3.8125 4.347656 -3.660156 C 4.089844 -3.503906 3.804688 -3.363281 3.488281 -3.238281 L 3.488281 -2.0625 L 1.726562 -2.0625 L 1.726562 -3.789062 C 1.917969 -3.839844 2.132812 -3.910156 2.367188 -4 C 2.605469 -4.089844 2.8125 -4.199219 2.988281 -4.328125 C 3.179688 -4.464844 3.332031 -4.621094 3.453125 -4.796875 C 3.574219 -4.976562 3.632812 -5.1875 3.632812 -5.433594 C 3.632812 -5.773438 3.527344 -6.019531 3.308594 -6.175781 C 3.09375 -6.328125 2.792969 -6.40625 2.40625 -6.40625 C 2.117188 -6.40625 1.8125 -6.34375 1.488281 -6.214844 C 1.164062 -6.089844 0.90625 -5.960938 0.722656 -5.835938 L 0.570312 -5.835938 L 0.570312 -7.386719 C 0.792969 -7.480469 1.113281 -7.582031 1.535156 -7.679688 C 1.957031 -7.78125 2.414062 -7.828125 2.898438 -7.828125 C 3.328125 -7.828125 3.710938 -7.777344 4.042969 -7.675781 C 4.375 -7.574219 4.65625 -7.433594 4.890625 -7.253906 C 5.117188 -7.070312 5.289062 -6.855469 5.410156 -6.609375 C 5.527344 -6.363281 5.585938 -6.097656 5.585938 -5.804688 M 3.632812 0 L 1.601562 0 L 1.601562 -1.359375 L 3.632812 -1.359375 Z "/>
</g>
</g>
</defs>
<g fill="rgb(98.039216%, 97.254902%, 96.078431%)" fill-opacity="1">
<use xlink:href="#glyph-0-0" x="30" y="30.560547"/>
<use xlink:href="#glyph-0-1" x="36" y="30.560547"/>
<use xlink:href="#glyph-0-2" x="41" y="30.560547"/>
<use xlink:href="#glyph-0-3" x="49" y="30.560547"/>
<use xlink:href="#glyph-0-4" x="55" y="30.560547"/>
<use xlink:href="#glyph-0-5" x="63" y="30.560547"/>
<use xlink:href="#glyph-0-6" x="66" y="30.560547"/>
<use xlink:href="#glyph-0-7" x="74" y="30.560547"/>
<use xlink:href="#glyph-0-5" x="80" y="30.560547"/>
<use xlink:href="#glyph-0-8" x="83" y="30.560547"/>
<use xlink:href="#glyph-0-6" x="90" y="30.560547"/>
<use xlink:href="#glyph-0-2" x="98" y="30.560547"/>
<use xlink:href="#glyph-0-1" x="106" y="30.560547"/>
<use xlink:href="#glyph-0-9" x="111" y="30.560547"/>
<use xlink:href="#glyph-0-10" x="119" y="30.560547"/>
<use xlink:href="#glyph-0-5" x="127" y="30.560547"/>
</g>
<g fill="rgb(98.039216%, 97.254902%, 96.078431%)" fill-opacity="1">
<use xlink:href="#glyph-0-0" x="30" y="47.978516"/>
<use xlink:href="#glyph-0-11" x="36" y="47.978516"/>
<use xlink:href="#glyph-0-12" x="43" y="47.978516"/>
<use xlink:href="#glyph-0-1" x="50" y="47.978516"/>
<use xlink:href="#glyph-0-9" x="55" y="47.978516"/>
<use xlink:href="#glyph-0-10" x="63" y="47.978516"/>
<use xlink:href="#glyph-0-5" x="71" y="47.978516"/>
<use xlink:href="#glyph-0-0" x="74" y="47.978516"/>
<use xlink:href="#glyph-0-13" x="80" y="47.978516"/>
<use xlink:href="#glyph-0-0" x="88" y="47.978516"/>
<use xlink:href="#glyph-0-6" x="94" y="47.978516"/>
<use xlink:href="#glyph-0-2" x="102" y="47.978516"/>
<use xlink:href="#glyph-0-14" x="110" y="47.978516"/>
<use xlink:href="#glyph-0-15" x="117" y="47.978516"/>
</g>
</svg>
